<?xml version="1.0" encoding="UTF-8"?>
<svg id="Layer_1" data-name="Layer 1" xmlns="http://www.w3.org/2000/svg" viewBox="0 0 1191 842" style="border-radius: 20px;">
  <defs>
    <style>
      .cls-1 {
        fill: #fff;
        stroke: #000;
        stroke-miterlimit: 10;
        stroke-width: .25px;
      }

      .cls-2 {
        fill: #a18f78;
        stroke-width: 0px;
      }
    </style>
  </defs>
  <rect class="cls-2" x="174.5" y="-174.5" width="842" height="1191" transform="translate(174.5 1016.5) rotate(-90)"/>
  <g>
    <path class="cls-1" d="M390.72,609.08l1.92,2.64,2.28,2.28,2.76,1.8s3,1.2,3,1.2l3.36,10.2,3.72,10.08,4.2,9.96,4.68,9.72,5.04,9.48,5.52,9.36,5.88,9,6.24,8.76,6.72,8.52,6.96,8.16,7.44,7.92,7.68,7.56,8.04,7.2,8.28,6.84,8.64,6.48,8.88,6.12,9.12,5.64,9.48,5.28,9.6,4.92,9.84,4.44,9.96,3.96,10.2,3.6,10.32,3.12,10.44,2.64,10.56,2.28,10.68,1.68,10.68,1.32,10.8.84,10.68.24,10.8-.12,10.8-.6,10.68-1.08,10.68-1.56,10.68-2.04,10.44-2.4,10.32-3,10.32-3.36,10.08-3.84,9.84-4.2,9.72-4.8,9.48-5.04,9.36-5.52,9-6,8.64-6.24,8.52-6.72,8.16-7.08,7.8-7.44,7.56-7.68,7.08-8.04,6.84-8.4,6.48-8.64,6-9,5.64-9.12,5.28-9.48,4.8-9.6,4.32-9.84,3.96-10.08s3.6-10.2,3.6-10.2l3.84-3,3.72-3.36,3.36-3.6-.36.36,3.12-3.24-2.88,10.44-3.24,10.44-3.84,10.2-4.2,10.08-4.56,9.84-5.04,9.6-5.4,9.48-5.88,9.12-6.12,9-6.6,8.64-6.96,8.4-7.32,8.04-7.68,7.8-7.92,7.44-8.28,7.08-8.52,6.72-8.88,6.36-9,5.88-9.36,5.64-9.6,5.16-9.84,4.8-9.96,4.32-10.08,3.96-10.32,3.48-10.44,3-10.56,2.64-10.68,2.16-10.8,1.68-10.8,1.2-10.8.72-10.92.36-10.92-.12-10.8-.72-10.8-1.08-10.8-1.44-10.68-2.04-10.68-2.4-10.44-2.88-10.32-3.36-10.32-3.84-9.96-4.2-9.84-4.56-9.72-5.04-9.36-5.52-9.24-5.88-8.88-6.12-8.64-6.6-8.4-6.96-8.04-7.32-7.68-7.68-7.44-8.04-7.08-8.28-6.72-8.52-6.36-8.88-5.88-9.12-5.64-9.36-5.16-9.48-4.68-9.84-4.32-9.96-3.96-10.2-3.48-10.32-3-10.44-2.52-10.56,1.68,3.6,2.04,3.48,2.28,3.36"/>
    <polyline class="cls-1" points="890.88 552.44 882.48 561.2 892.56 550.64 892.56 540.68 892.08 530.6 891.36 520.52 890.16 510.56 888.6 500.72 886.08 505.52 881.04 515.72 882.24 527 882.84 538.4 882.84 549.8 882.48 561.2"/>
    <polygon class="cls-1" points="713.16 301.76 721.08 293.24 728.64 284.36 735.72 275.12 742.32 265.64 748.56 255.8 754.32 245.6 759.6 235.28 764.4 224.72 768.72 213.92 772.44 203 774.24 197 775.44 190.88 776.28 184.64 776.64 178.4 776.64 172.16 776.16 165.92 775.2 159.8 773.88 153.68 772.2 147.68 769.92 141.8 767.4 136.16 764.4 130.64 761.04 125.36 757.32 120.32 753.24 115.64 748.8 111.2 744.12 107 732.96 98.48 721.56 90.32 709.8 82.52 697.8 75.08 685.56 68.12 673.08 61.52 660.36 55.4 647.52 49.64 634.44 44.36 621.24 39.56 607.8 35.12 627.36 38.12 646.8 41.72 666.24 45.92 685.44 50.48 704.52 55.64 723.48 61.28 742.32 67.52 752.28 70.76 762.12 74.48 771.72 78.68 781.2 83.24 790.44 88.16 799.44 93.44 808.32 99.2 816.84 105.32 825.12 111.68 833.16 118.52 837.36 122.12 841.32 126.2 844.92 130.52 848.04 135.2 850.8 140.12 853.2 145.16 855.12 150.44 856.68 155.84 857.64 161.36 858.24 167 858.24 172.64 857.16 179.84 855.6 187.04 853.56 194 851.04 200.96 848.16 207.56 844.8 214.16 840.96 220.4 836.88 226.4 832.32 232.16 827.4 237.68 822.12 242.72 814.2 250.4 805.92 257.6 797.4 264.56 788.4 270.92 779.28 277.04 769.8 282.56 760.08 287.72 750.12 292.4 739.92 296.72 729.6 300.44 719.04 303.68 729.36 307.4 739.56 311.6 749.52 316.28 759.24 321.32 768.84 326.84 778.08 332.72 787.08 338.96 795.84 345.56 804.36 352.64 812.4 359.96 820.32 367.76 827.76 375.8 834.84 384.08 841.68 392.72 848.04 401.72 854.04 410.96 859.68 420.44 864.84 430.04 869.64 440 865.32 449.36 865.39 449.22 864.24 451.88 859.92 442.04 855.12 432.32 849.96 422.84 844.32 413.6 838.32 404.6 831.84 395.84 825.12 387.44 817.92 379.28 810.48 371.48 802.68 364.04 794.52 356.96 786 350.24 777.24 343.76 768.24 337.88 759 332.24 749.52 327.08 739.8 322.28 729.84 317.96 719.76 314.12 709.44 310.76 699.12 307.76 688.56 305.24 677.88 303.2 667.2 301.64 656.52 300.44 645.72 299.84 634.8 299.72 624 299.96 613.2 300.8 602.52 302 591.84 303.8 581.28 305.96 570.72 308.6 560.4 311.72 550.2 315.32 540.12 319.4 530.28 323.84 520.56 328.64 511.2 334.04 501.96 339.68 493.08 345.8 484.44 352.28 476.04 359.24 468 366.44 460.32 374 452.88 381.92 445.92 390.08 439.2 398.6 432.96 407.48 427.08 416.48 421.56 425.84 416.52 435.44 411.84 445.16 407.64 455.12 403.92 465.32 400.56 475.64 397.68 486.08 395.28 496.64 393.36 507.2 391.92 504.44 390 501.8 387.84 499.64 385.2 497.72 387.48 487.04 390.24 476.48 393.36 466.04 397.08 455.72 401.16 445.52 405.6 435.56 410.52 425.84 415.92 416.24 421.68 407 427.8 397.88 434.28 389.12 441.12 380.6 448.44 372.44 456 364.52 463.92 357.08 472.2 349.88 480.72 342.92 489.48 336.56 498.6 330.44 507.96 324.68 517.44 319.4 527.28 314.48 537.24 310.04 547.44 306.08 557.76 302.48 568.2 299.36 578.76 296.6 589.56 294.32 600.36 292.64 611.16 291.32 622.08 290.48 633 290 643.92 290.12 654.84 290.72 665.76 291.68 676.56 293.12 676.32 277.16 675.6 261.2 674.52 245.36 672.96 229.4 670.92 213.56 670.08 205.88 668.76 198.32 666.96 190.76 664.68 183.32 661.92 176.12 658.8 169.04 655.2 162.2 651.24 155.6 646.92 149.24 642.12 143.12 635.64 136.28 628.92 129.68 621.84 123.32 614.52 117.44 606.96 111.8 599.04 106.64 591 101.72 582.6 97.28 559.8 85.64 536.76 74.6 513.48 63.92 489.96 53.84 466.2 44.24 442.32 35 459.36 35.48 476.28 36.44 493.2 37.88 510.12 39.68 526.92 41.96 543.72 44.84 560.4 47.96 576.96 51.68 593.4 55.88 609.84 60.44 618.36 63.32 626.76 66.68 634.92 70.4 642.96 74.6 650.76 79.28 658.2 84.2 665.52 89.6 672.48 95.36 679.08 101.48 685.44 107.84 691.44 114.56 697.08 121.64 702.36 128.96 707.28 136.64 710.52 144.44 713.28 152.36 715.56 160.52 717.48 168.8 718.8 177.08 719.64 185.48 720 193.88 719.88 202.4 719.28 210.8 718.2 219.2 716.52 227.48 714.48 235.64 711.84 243.68 708.84 251.6 705.36 259.28 701.4 266.72 696.96 274.04 692.16 281 687 287.6 681.36 293.96 713.16 301.76"/>
    <path class="cls-1" d="M232.08,621.2l-14.52,9.24-8.52,5.64-8.76,5.4-9.12,4.92-9.12,4.68-9.36,4.2-9.6,3.96-9.6,3.48-6.72,2.16-6.72,1.68-6.84,1.32-6.96.96-6.96.36h-7.08l-6.96-.48-6.96-.84-6.84-1.32-4.32-1.8-4.2-2.16-3.96-2.64-3.6-3.12-3.24-3.48-2.76-3.72-2.52-4.08-1.32-5.52-.84-5.64-.48-5.64-.12-5.64.48-5.64.84-5.52,1.2-5.52,1.68-5.4,3.24-9,3.72-8.88,4.08-8.52,4.68-8.4,5.16-8.04,9.48-13.08,9.96-12.96,10.32-12.48,10.68-12.24,11.04-12,12.6-12.48,12.84-12.12,13.2-11.76,13.44-11.52,13.8-11.16,12.6-10.08,12.84-9.84,13.2-9.36,13.44-8.88,13.8-8.64,13.92-8.04,9.24-4.92,9.48-4.56,9.48-4.2,9.84-3.84,6.6-2.52,6.84-2.04,6.96-1.56,7.08-.96,7.08-.48h3l2.88.48,2.88.96,2.64,1.32,2.4,1.68,2.16,2.04,1.92,2.28,1.68,3.24,1.32,3.36.84,3.6.48,3.6-.12,3.6-.6,3.6-1.2,6-1.8,5.88-2.16,5.76-2.76,5.52-3.24,5.28-3.6,4.92-5.88,8.4-6.24,8.16-6.6,7.92-6.84,7.56-7.32,7.2-6.6,7.44-7.08,7.08-7.32,6.72-7.8,6.36-8.04,6-7.08,6.24-7.44,6-7.68,5.76-6.36,5.52-6.72,5.04-7.08,4.8-7.2,4.32-6.6,4.68-6.72,4.2-7.08,3.84-4.2,2.28-4.32,1.56-4.56,1.2-4.68.48-2.28-.36-2.28-.6-2.04-1.08-1.8-1.44-1.68-1.68-1.08-2.4-.72-2.52v-2.64l.48-2.64.84-3,1.32-3,1.68-2.64,3-4.56,3.48-4.2,3.84-3.84,6.6-6.6,7.08-6,12.84-10.2,12.72-10.32s6.36-5.04,6.36-5.04l6.84-4.56,2.52-1.56,2.76-1.32,2.88-.84.72.24.24.6-.6,2.04-.96,1.8-5.4,6.6-.24.6.12.6.48.48.6.12.6-.24s6.36-3.72,6.36-3.72c0,0,4.8-3.24,4.8-3.24l4.56-3.6,4.44-3.84,7.44-6.36,7.2-6.6,6.96-6.96s10.44-10.32,10.44-10.32l10.08-10.8,5.88-7.2,5.64-7.44,5.16-7.68s1.8-3.36,1.8-3.36l1.44-3.48,1.08-3.72.6-3.72s.12-1.44.12-1.44l-.36-1.44-.84-1.2-.96-.96-1.32-.6-1.44-.24-4.2.36-4.08.84-4.08,1.32s-11.16,5.28-11.16,5.28l-10.92,5.88s-23.04,15-23.04,15l-12.48,8.52-12.24,9-11.88,9.48-10.32,7.32-9.84,7.68-9.6,8.28-9.24,8.52s-8.4,7.32-8.4,7.32l-8.16,7.56-7.8,7.92-7.68,8.16s-10.56,11.64-10.56,11.64l-10.32,11.88-9.84,12.24s-6.36,8.52-6.36,8.52l-5.88,8.88-5.52,9.12-5.16,9.36s-3.24,6.6-3.24,6.6l-2.88,6.84-2.28,6.96-1.92,7.2s-.84,3.72-.84,3.72l-.48,3.84v3.72l.36,3.84.84,3.84,1.2,3.6,1.68,3.48s1.8,2.88,1.8,2.88l2.28,2.64,2.64,2.28,3,1.92,3.24,1.32,3.36.96,3.36.48,3.6-.12s6.96-.36,6.96-.36l6.96-.72,6.84-1.2,6.84-1.68,6.6-2.04,6.6-2.4s12.48-5.4,12.48-5.4l12.48-5.76,12.12-6.24,11.88-6.6,11.76-7.08,18.24-12.12,17.88-12.6,17.52-13.2s-.72,12.12-.72,12.12l-5.16,4.8-5.52,4.44-13.2,10.92-13.56,10.44-13.92,9.96-14.16,9.6Z"/>
    <polygon class="cls-1" points="566.76 608.96 562.08 612.8 566.76 617.84 571.68 622.64 576.96 626.96 582.48 631.04 588.36 634.76 594.36 638 600.6 640.88 607.08 643.4 613.56 645.44 620.28 647.12 627 648.32 633.84 649.04 640.8 649.28 647.64 649.16 654.48 648.56 661.32 647.48 668.04 646.04 674.64 644.12 681 641.84 687.36 639.08 693.48 635.96 699.36 632.36 705 628.4 710.4 624.2 715.44 619.52 720.24 614.6 717.72 612.92 715.44 610.88 710.76 615.68 705.72 620.12 700.44 624.32 694.92 628.04 689.04 631.4 683.04 634.4 676.8 636.92 670.44 639.08 663.96 640.76 657.36 642.08 650.76 642.92 644.04 643.28 637.32 643.16 630.6 642.68 624 641.6 617.4 640.16 610.92 638.36 604.68 636.08 598.56 633.32 592.56 630.2 586.92 626.72 581.4 622.76 576.24 618.56 571.32 613.88 566.76 608.96"/>
    <polygon class="cls-1" points="544.56 584.6 550.08 582.2 547.56 575.36 545.4 568.28 543.84 561.2 542.88 553.88 542.4 546.56 536.64 551.96 537.36 558.68 538.56 565.28 540.12 571.88 542.16 578.36 544.56 584.6"/>
    <polygon class="cls-1" points="715.68 536.6 716.88 536.24 717.36 542.24 717.48 548.24 717.12 554.24 716.28 560.24 714.96 566.12 713.28 571.88 711.12 577.52 708.6 583.04 705.6 588.2 702.24 593.24 698.52 598.04 694.56 602.48 690.12 606.68 685.44 610.52 680.52 613.88 675.36 617 669.96 619.76 664.44 622.04 658.68 623.84 652.8 625.28 646.92 626.24 640.92 626.84 634.8 626.96 628.8 626.6 622.8 625.76 616.92 624.56 611.16 622.88 605.52 620.72 600 618.2 594.72 615.32 589.68 611.96 585 608.24 580.44 604.28 576.24 599.96 577.08 599 581.52 603.56 586.2 607.76 591.24 611.6 596.52 614.96 602.16 617.84 607.92 620.36 613.92 622.4 620.04 623.96 626.28 625.04 632.52 625.64 638.76 625.64 645.12 625.28 651.36 624.32 657.48 622.88 663.48 621.08 669.36 618.68 675 615.8 680.4 612.56 685.56 608.96 690.36 604.88 694.8 600.44 699 595.64 702.72 590.6 705.96 585.2 708.84 579.56 711.24 573.8 713.28 567.8 714.72 561.68 715.68 555.44 716.28 549.08 716.28 542.84 715.68 536.6"/>
    <polygon class="cls-1" points="561.24 575.36 562.2 574.64 560.16 568.52 558.6 562.16 557.52 555.8 556.92 549.32 555.72 549.08 556.32 555.8 557.4 562.4 558.96 568.88 561.24 575.36"/>
    <polygon class="cls-1" points="902.52 405.8 903.84 405.8 905.16 406.04 906.24 406.76 907.92 407.84 909.36 409.28 910.44 410.96 911.88 412.88 912.84 415.16 913.32 417.56 912.84 422.96 911.88 428.36 909.48 434.84 906.6 441.08 903.48 447.44 899.88 453.44 896.64 461.36 892.8 468.92 889.92 475.64 886.92 482.12 877.44 501.2 870.36 515.36 867.24 523.4 864.6 531.56 861.72 540.08 859.56 548.84 858 554.6 857.04 560.48 856.68 566.48 857.16 574.16 858.12 581.84 858.96 583.76 860.28 585.32 861.84 586.64 863.64 587.6 865.68 587.72 867.84 587.48 869.76 586.76 873.24 584.48 876.36 581.72 879.36 578.72 884.4 573.8 888.96 568.4 897.84 559.16 898.92 553.28 900.36 547.64 902.28 542 904.56 536.6 907.08 530.72 909.84 525.08 913.08 519.68 916.56 514.4 919.08 510.08 921.96 505.88 925.32 502.04 928.8 498.44 931.2 496.28 933.72 494.6 936.48 493.16 939.48 492.2 942.6 491.72 944.76 491.48 946.92 491.6 948.96 492.2 951 493.04 952.68 494.36 954 495.56 955.08 496.88 955.8 498.56 956.16 500.24 956.16 501.92 955.8 503.72 954.36 508.64 952.56 513.56 950.4 518.24 947.16 524.12 943.56 529.76 939.6 535.16 926.88 551.24 924.84 553.76 923.28 556.52 921.96 559.52 921.12 562.64 920.64 565.76 920.52 569 920.76 572.12 921.36 575.24 922.2 577.28 923.4 578.96 924.96 580.52 926.76 581.72 928.68 582.56 930.72 582.92 933.84 583.28 937.08 583.04 940.08 582.32 943.08 581.24 945.84 579.68 953.52 573.8 960.72 567.44 964.68 564.44 968.28 560.96 968.4 557.24 969 553.64 969.96 550.04 971.4 546.56 973.8 542.12 976.56 537.8 979.68 533.84 983.16 530.12 987.6 524.6 992.4 519.56 997.56 514.88 1006.08 507.56 1014.96 500.84 1022.88 495.44 1031.16 490.28 1036.44 487.4 1041.96 484.88 1047.72 482.84 1051.32 481.4 1055.04 480.44 1058.88 479.84 1062.84 479.72 1065.48 479.96 1068 480.68 1070.28 482 1072.32 483.8 1073.88 485.96 1075.2 488.12 1076.04 490.4 1076.52 492.92 1076.52 495.44 1076.16 497.36 1075.32 499.16 1074 500.6 1072.44 501.68 1070.52 502.28 1069.56 502.4 1068.6 502.76 1068.12 503.36 1067.88 504.08 1068 504.8 1068.84 507.08 1070.04 509.12 1073.4 515.36 1074.12 518.6 1074.36 521.84 1074.12 525.08 1073.16 528.32 1069.8 535.4 1065.96 542.36 1062.6 549.32 1058.88 556.04 1057.44 560.84 1056.48 565.76 1056 570.68 1056.24 573.2 1056.96 575.72 1058.16 578 1059.72 580.04 1061.04 581.24 1062.6 582.08 1064.28 582.56 1066.08 582.68 1069.44 582.08 1072.68 580.76 1075.56 578.96 1079.88 576.08 1083.84 572.6 1092.96 563.72 1097.28 559.76 1098 559.4 1098.72 559.76 1098.72 565.64 1098.96 569.96 1099.08 571.04 1098.72 572 1092.12 580.16 1087.56 585.92 1082.76 591.44 1077.84 596.84 1072.08 602.6 1065.96 608.12 1063.2 610.76 1060.2 613.04 1056.96 614.96 1053.6 616.28 1050.12 617.36 1046.52 618.08 1044 618.08 1041.48 617.72 1039.2 616.64 1037.04 615.2 1035.48 612.44 1034.16 609.44 1033.32 606.32 1032.96 603.2 1033.68 595.64 1034.64 588.08 1035.12 583.64 1035.96 579.32 1037.28 575.12 1038.96 569.12 1039.44 566.96 1039.44 566.48 1038.36 564.2 1037.04 562.04 1035.24 560.24 1033.2 558.8 1030.92 557.6 1028.52 557 1028.4 556.88 1028.52 556.64 1030.08 554.48 1038.36 542 1046.16 529.4 1054.44 514.88 1055.28 513.32 1055.76 511.64 1055.88 509.96 1053 511.52 1042.56 517.16 1032.48 523.28 1022.52 529.76 1012.92 536.6 1008.36 540.32 1004.16 544.28 1000.08 548.48 996.48 552.92 993 557.6 991.56 561.44 990.48 565.4 989.76 569.48 989.4 573.68 989.4 577.76 990.12 580.16 991.2 582.44 992.76 584.48 994.68 586.16 997.8 585.56 1000.8 584.48 1003.68 583.04 1006.32 581.12 1008.6 578.96 1010.64 576.44 1017.48 569.72 1023.96 562.52 1025.88 562.64 1027.8 563.24 1029.48 564.2 1031.04 565.4 1032.36 566.84 1033.32 568.52 1034.04 570.44 1034.28 572.36 1029.24 579.2 1025.04 584.84 1020.6 590.12 1017.24 594.8 1013.4 599.12 1009.32 603.08 1005.84 606.08 1002.24 608.84 998.28 611.12 996.24 611.96 994.08 612.32 991.92 612.32 989.88 611.84 987.84 611 986.16 609.68 984.84 608 981.96 604.64 979.32 601.04 976.92 597.2 974.4 592.52 972.6 587.6 971.04 583.88 970.08 580.04 969.36 577.16 969.24 577.04 969 577.04 968.88 577.16 965.88 581.72 962.64 586.64 959.04 591.2 955.56 595.4 951.84 599.24 947.88 602.96 943.8 606.08 939.48 608.96 935.04 611.6 932.16 613.04 929.04 614.12 925.8 614.6 923.16 614.72 920.64 614.36 918 613.76 915.6 612.8 912.6 610.52 909.96 607.76 907.68 604.76 905.16 600.32 903.12 595.64 901.56 590.72 900.24 587.36 899.4 583.88 899.04 580.4 898.68 578.36 898.56 576.2 898.56 575.72 898.2 575.36 897.6 575.24 897.24 575.6 896.64 577.4 895.8 578.96 894.72 580.4 892.68 584 890.28 587.24 887.52 590.24 881.4 597.68 874.92 604.76 871.92 608 868.56 610.88 865.2 613.64 862.56 615.08 859.8 616.28 856.8 617 853.92 617.48 851.64 617.6 849.48 617.48 847.32 616.76 845.28 615.8 843.48 614.48 841.68 612.92 840.12 611 839.04 608.96 838.32 606.56 838.2 604.16 837.24 599.12 837 594.08 837.36 588.92 837.72 580.88 838.44 572.72 838.8 567.92 839.64 563.12 839.64 562.28 839.4 561.56 837.6 558.56 835.44 555.68 832.92 553.28 830.16 551.12 829.92 550.76 830.04 550.4 836.28 543.44 842.04 536 844.8 531.68 847.08 527.12 848.88 522.44 850.2 517.52 850.32 516.92 850.08 516.44 849.6 516.2 847.56 516.32 845.52 516.8 843.6 517.76 838.68 520.4 833.88 523.52 829.44 526.76 822.36 530.96 815.64 535.64 809.28 540.68 806.28 542.6 803.52 544.88 801.12 547.52 799.2 550.52 797.4 554.48 795.84 558.56 794.76 562.76 793.68 566.72 793.2 570.8 793.2 577.04 793.68 578.96 794.76 580.76 796.2 581.36 797.76 581.72 799.32 581.6 800.76 581.24 802.08 580.4 803.28 579.32 809.16 573.2 814.92 566.84 825.48 555.08 827.88 555.8 830.16 556.88 832.08 558.56 833.64 560.48 834.84 562.64 835.56 565.04 835.92 567.56 830.16 575.24 826.32 580.4 822.12 585.32 819.48 589.04 816.6 592.52 813.48 595.76 808.8 600.56 804 605.12 800.04 608.12 795.96 610.76 793.68 610.76 791.4 610.28 789.36 609.2 787.2 607.76 785.16 606.08 783.6 604.04 782.28 601.64 780.48 598.64 779.04 595.52 777.96 592.16 776.52 589.16 775.56 586.16 774.84 583.04 773.88 579.2 773.4 575.36 773.28 574.76 772.92 574.4 772.44 574.16 771.84 574.16 771.48 574.52 771.12 575 768.24 579.08 764.88 582.8 761.4 586.4 747.48 602 741.72 606.08 735.72 609.8 733.2 610.64 730.68 611 728.04 611 725.52 610.52 722.64 608.96 720.12 607.04 717.84 604.76 715.92 602.12 714.72 599 713.88 595.88 713.52 592.52 713.76 589.28 713.52 585.32 713.64 581.36 714.12 577.52 715.08 573.68 716.4 569.96 718.44 563.84 720.84 557.84 723.6 552.08 726.12 546.08 729.12 540.2 732.6 534.68 734.52 531.32 736.92 528.08 737.28 527.48 737.4 526.64 737.16 525.92 735 526.4 733.08 527.48 728.16 528.44 723.24 529.04 719.16 529.52 715.2 530.36 711.24 531.68 707.64 533.48 704.16 535.76 701.04 538.28 699.84 542.12 698.16 545.72 696.24 549.08 693.96 552.32 692.4 556.16 690.24 559.76 687.72 563 684.84 566 681.6 568.52 677.52 572.72 673.2 576.56 668.64 580.16 666.48 581.84 663.96 583.04 661.44 583.88 658.68 584.36 656.04 584.36 653.28 584 650.64 583.28 649.32 587.12 647.52 590.84 645.48 585.08 643.8 579.08 642.6 572.96 641.88 566.84 641.52 560.72 641.64 554.6 642.12 548.36 643.08 542.24 644.52 536.24 646.32 530.36 648.48 524.6 651.12 518.96 654.12 513.56 654 512.48 653.64 511.4 652.92 510.44 651.96 509.84 650.88 509.48 649.8 509.48 648.72 509.72 647.76 510.32 641.16 514.88 635.04 519.92 629.16 525.32 623.76 530.96 618.6 537.08 613.92 543.56 611.88 547.4 610.2 551.48 608.88 555.68 607.92 560 607.44 564.32 607.44 568.76 607.68 573.2 608.4 577.52 609.6 581.72 610.8 584 612.6 586.04 614.64 587.6 617.04 588.68 619.56 589.28 622.08 589.28 624.72 588.8 627.12 587.84 630.36 586.52 633.48 584.84 636.48 582.8 638.52 584.96 640.32 587.36 641.88 589.88 643.08 592.64 644.04 595.4 641.28 599 638.16 602.24 634.68 605 630.96 607.52 627 609.56 624.72 610.64 622.2 611.36 619.68 611.72 617.16 611.72 614.64 611.36 612.24 610.52 609.96 609.32 606.84 607.52 603.84 605.24 601.2 602.72 598.8 599.96 596.76 596.84 595.08 593.6 593.4 589.16 592.2 584.72 591.48 580.04 591.24 575.36 591.36 574.52 591 573.8 590.28 573.44 589.08 573.92 588.36 574.76 585.48 578.48 582.84 582.2 578.52 588.08 573.84 593.72 568.8 599 563.4 603.92 557.76 608.48 554.4 611.24 550.8 613.52 547.08 615.56 543.12 617.12 538.92 618.2 534.72 618.92 531.24 618.92 527.76 618.44 524.4 617.48 521.16 615.92 518.16 614 515.64 611.6 513.36 608.84 510.72 605.24 508.32 601.52 506.4 597.44 504.84 593.24 503.64 588.92 502.92 584.48 502.44 579.32 502.56 574.16 502.56 573.92 502.32 573.8 502.08 573.8 501.96 574.04 500.28 576.8 495 582.68 490.2 588.92 485.04 594.44 479.64 599.6 473.88 604.4 467.88 608.96 465.96 610.88 463.68 612.56 461.28 613.88 458.52 614.72 455.88 615.2 453 615.2 450.24 614.84 447.96 613.76 445.92 612.2 444.24 610.28 442.92 608 441.96 605.72 441.48 603.2 441 599.24 441 595.28 441.36 591.44 442.32 587.6 443.76 584 447 575.36 450.72 567.08 456.6 554.48 462.84 542 464.28 539.36 465.96 536.96 466.2 536.48 465.96 536.12 465.6 535.88 464.64 536 463.8 536.72 458.88 541.16 454.2 545.96 449.76 551.12 445.68 556.4 423.36 587 417.24 596.24 410.88 605.12 409.68 606.44 408.24 607.28 406.56 607.76 404.88 607.88 403.2 607.64 401.64 606.92 400.32 605.84 397.8 602 395.64 597.8 394.08 593.48 393.12 588.92 392.64 584.24 392.16 581.12 392.16 577.88 392.52 574.76 392.52 574.28 392.04 573.92 391.56 573.92 390.12 575.24 386.28 579.08 382.2 581.96 377.88 584.48 373.32 586.64 369.84 587.12 366.24 587.36 362.64 587.12 361.44 588.56 359.88 589.64 357 586.28 354.48 582.56 352.32 578.72 350.52 574.64 349.2 570.44 348.36 566.12 347.88 561.68 347.88 557.24 348.24 552.8 349.08 548.48 350.4 544.28 352.2 540.2 355.44 531.08 359.16 522.08 363.24 513.32 355.08 518.96 347.28 525.08 339.84 531.56 335.04 536.12 330.6 541.04 326.52 546.2 322.92 551.72 320.64 559.16 318.72 566.72 317.28 574.4 316.68 576.68 316.56 578.96 316.8 581.24 317.52 583.52 318.6 585.56 320.16 587.36 321.96 588.92 324.24 589.76 326.52 590.24 329.04 590.24 331.44 589.88 333.72 589.04 339 585.68 344.04 582.08 346.44 582.56 348.72 583.52 350.88 584.84 352.68 586.4 354.24 588.32 355.44 590.48 356.28 592.76 356.64 595.16 353.4 599.36 349.8 603.2 347.16 606.08 344.16 608.72 340.8 610.88 337.32 612.68 333.6 614.12 330.36 614.96 327 615.2 323.64 614.96 320.28 614.24 316.92 612.92 313.8 611 310.92 608.72 308.52 606.2 306.36 603.44 304.68 600.44 303.24 597.2 301.2 592.76 299.76 588.08 298.68 583.4 297.96 577.28 297.6 571.04 298.32 558.92 299.4 553.04 300.96 547.28 303 541.52 305.52 536.12 308.4 530.84 311.64 525.8 315.36 521 319.56 515.72 324.12 510.8 328.92 506.12 333.96 501.68 339.36 497.6 345 494 348.96 491.96 353.04 490.28 357.36 489.08 361.68 488.24 366.12 487.76 368.64 487.88 371.04 488.36 373.32 489.2 375.48 490.52 377.28 492.08 378.24 493.4 378.96 494.84 379.44 496.4 379.44 497.96 379.2 499.52 378.6 500.96 377.76 502.4 377.4 503.24 377.52 504.2 377.88 505.16 380.16 506 382.08 507.56 383.64 509.36 384.72 513.2 385.44 517.04 385.68 521 385.44 524.96 384.72 528.8 383.04 537.32 380.76 545.72 378 554 376.68 558.32 374.88 562.4 372.6 566.36 372.36 566.96 372.48 567.68 372.96 568.16 374.28 569.12 375.84 569.72 377.4 569.84 379.08 569.6 381.6 568.28 384 566.72 386.16 564.92 392.16 559.64 393.84 553.64 396.12 547.88 398.88 542.36 405 531.44 411.72 520.76 415.32 515.6 419.16 510.56 423.48 506 425.76 504.2 428.4 502.88 431.28 502.04 434.16 501.68 436.56 501.68 438.96 502.28 441.12 503.36 443.04 504.92 444.12 506.12 444.96 507.56 445.44 509.24 445.44 510.92 444.96 512.6 442.92 516.44 440.52 519.92 437.64 523.16 427.32 537.8 422.28 545.6 417.72 553.64 416.4 555.92 415.44 558.44 414.84 561.08 414.6 563.72 414.72 565.52 415.32 567.32 415.92 567.68 416.76 567.68 417.48 567.32 422.76 560.84 434.04 545 440.64 536.6 447.84 528.68 452.28 523.16 456.96 517.88 462 512.96 467.16 507.8 472.68 502.88 478.56 498.44 482.04 495.68 486 493.4 490.2 491.72 491.88 491.24 493.56 491.36 495.12 491.84 496.68 492.68 497.76 494 499.2 497.96 500.28 502.16 501 506.36 501.24 510.68 500.88 513.68 500.04 516.56 498.72 519.32 496.92 521.72 490.32 531.92 483.36 541.88 479.16 548.84 475.32 556.04 471.84 563.36 470.4 566.84 469.32 570.56 468.96 574.4 469.08 578.24 469.68 579.56 470.76 580.52 472.08 581.12 473.52 581.36 474.96 581.12 476.28 580.52 480.36 578 484.32 575.24 488.04 572.24 491.52 569 496.68 564.44 501.72 559.64 502.2 556.04 503.04 552.44 504.36 548.96 506.04 545.6 511.08 537.32 516.72 529.28 520.32 524.12 524.28 519.2 528.6 514.52 533.04 510.2 538.68 504.2 544.56 498.68 550.68 493.4 554.4 490.64 558.36 488.24 562.56 486.32 567 484.64 569.64 484.16 572.28 484.04 574.92 484.4 577.56 485.24 579.96 486.44 581.88 488.6 583.44 491.12 584.52 494 585 496.88 585 499.76 584.4 502.76 583.2 507.68 581.52 512.48 579.6 517.16 577.32 521.72 574.32 527 571.08 532.16 567.36 537.08 563.28 541.64 562.2 542.72 560.76 543.44 559.2 543.56 557.64 543.32 556.2 542.48 555.24 540.2 554.76 537.92 554.76 535.4 555.24 532.88 555.12 530.24 555 529.64 554.52 529.28 553.92 529.16 553.32 529.28 552.96 529.64 545.76 536 540.24 540.44 534.96 545.12 530.04 550.16 527.28 553.04 525 556.16 523.08 559.52 521.64 563.12 521.16 568.04 521.4 573.08 522.24 577.88 523.2 580.4 524.52 582.8 526.2 584.84 528 586.76 530.16 588.44 532.68 589.88 535.44 590.96 538.32 591.44 541.2 591.56 544.2 591.08 546.96 590.12 551.4 588.32 555.72 586.16 559.92 583.64 563.76 580.88 570.6 575.96 577.08 570.8 583.44 565.28 590.28 559.52 590.88 554.6 591.96 549.8 593.4 545.12 595.2 540.56 597.48 536.12 601.2 529.16 605.4 522.44 609.96 515.96 614.88 509.84 618.12 505.76 621.72 502.04 625.56 498.68 629.76 495.68 634.08 493.04 638.76 490.76 642.24 488.96 645.96 487.76 649.8 486.92 653.76 486.8 657.6 487.16 661.44 488 662.64 488.6 663.72 489.44 664.56 490.52 665.04 491.84 664.56 493.88 663.84 495.92 662.76 497.84 661.44 499.52 662.76 500.48 663.96 501.68 664.8 503.12 665.28 504.8 665.52 506.48 667.2 507.08 668.76 508.04 670.08 509.48 670.92 511.04 671.52 512.72 672 518 672 523.28 671.4 528.56 670.44 533.6 668.16 542.48 665.16 551 662.76 556.04 659.88 560.72 659.52 562.16 659.4 563.6 659.76 564.92 660.24 566.24 661.2 567.32 663.84 568.16 666.6 568.52 669.36 568.4 672.12 567.8 676.08 565.16 679.68 562.04 683.16 558.68 688.44 552.2 693.24 545.24 694.08 543.92 694.56 542.48 694.56 540.92 694.08 539.84 693.24 539 692.28 538.4 690.48 537.08 688.68 535.52 687.24 533.72 686.28 531.08 685.92 528.44 686.16 525.68 687.12 520.88 688.68 516.2 690.72 511.76 695.16 503.12 700.2 494.84 701.76 491.84 703.8 489.08 706.32 486.68 708.96 484.76 711.96 483.08 715.2 481.88 714.24 483.56 713.76 485.24 713.64 487.16 714 488.84 714.72 490.76 715.68 492.44 716.88 494 718.44 495.32 726.48 494.48 734.52 493.4 742.56 491.96 750.72 491.12 752.28 490.76 753.84 491 755.28 491.6 756.48 492.68 757.32 494 757.68 495.56 758.4 501.56 758.76 507.56 758.64 513.56 764.88 513.56 762.84 517.88 760.08 521.84 756.96 525.56 750.96 534.32 745.44 543.44 742.44 549.2 739.8 555.2 737.64 561.32 735.84 567.56 735.12 569.96 734.88 572.48 735.24 575 735.96 577.4 737.52 578.6 739.44 579.44 741.48 579.8 743.52 579.8 745.44 579.44 748.68 578.24 751.8 576.68 754.68 574.76 757.32 572.48 764.52 566.24 771.6 559.76 772.44 554.24 773.88 548.84 775.92 543.56 777.72 539.24 780 534.92 782.64 530.96 785.76 527.24 792.36 519.56 799.56 512.36 804.48 507.56 809.88 503.24 815.52 499.52 820.44 496.16 825.72 493.4 831.12 491.12 834.24 489.92 837.48 489.32 840.84 489.2 844.08 489.68 847.2 490.64 850.68 492.68 853.68 495.32 856.44 498.2 865.08 475.64 874.2 453.32 879.84 441.08 885.96 429.2 892.68 417.44 894.96 413.84 897.48 410.36 900.36 407.24 901.32 406.4 902.52 405.8"/>
    <path class="cls-1" d="M628.68,422.6l1.44-8.04,1.92-8.04,2.28-7.92,2.64-7.8,3.12-7.68,3.48-7.44,3.96-7.2,4.2-7.08,4.68-6.84,4.92-6.48,5.4-6.36,5.64-6,6-5.64,6.24-5.4-6.84,1.92-6.6,2.4-6.48,2.88-6.12,3.24-6,3.72-5.76,4.2-5.4,4.44-5.04,4.92-4.8,5.16-4.32,5.52-3.96,5.76-3.6,6.12-3.12,6.24-2.76,6.6-2.16,6.6-1.8,6.84-1.32,6.96-.84,6.96-.36,6.96.24,7.08.6,6.96,1.08,6.96s-6.36,2.4-6.36,2.4l-6.24,2.64-6.12,3.12-5.88,3.6-5.52,3.84-5.4,4.2-5.04,4.56-4.8,4.92-4.44,5.16-4.08,5.52s4.8-2.28,4.8-2.28l4.92-1.92s1.44-.36,1.44-.36l4.56-4.92,4.92-4.56,5.16-4.32,5.4-3.84,5.76-3.6,5.88-3.12,6.12-2.76,6.24-2.28,1.92,6.24,2.28,6.12,2.52,6-5.76,1.56-5.52,2.16-5.52,2.4-5.28,2.88-5.04,3.24-4.68,3.6s.72.96.72.96l5.04-3.84,5.4-3.36,5.52-2.88,5.76-2.52,6-2.04,6.12-1.56,6.24-1.08,6.24-.6h6.36l6.36.36,6.24.96,6.12,1.44,6,1.92,5.88,2.28,5.64,2.88,5.4,3.24,5.04,3.72,4.92,4.08s4.44,4.44,4.44,4.44l.6-1.2-3.84-3.84-4.2-3.48-4.32-3.36-4.56-3s-4.8-2.64-4.8-2.64l-1.2-12.72s-.6-12.84-.6-12.84l6.36,2.28,6.12,2.64,6.12,3.12,5.76,3.48,5.52,3.96,5.28,4.2,4.92,4.56,4.68,4.92,4.32,5.28,3.84,5.52s6.6-.96,6.6-.96l-3.84-5.76-4.2-5.52-4.68-5.16-4.92-4.92-5.28-4.56-5.52-4.32-5.88-3.84-6-3.36-6.24-3.12-6.48-2.64s-6.6-2.16-6.6-2.16l.12-12.12.72-12.12,1.2-12.12,1.8-12,2.16-12,2.76-11.76,3.36-11.76,3.72-11.52,4.32-11.4-5.4,5.4-4.92,5.76-4.56,6-4.2,6.36-3.72,6.6-3.36,6.84-2.88,6.96-2.4,7.2-2.04,7.32-1.44,7.44-1.08,7.44-.48,7.56v7.56l.48,7.56.84,7.56-7.32-.84-7.56-.24-7.44.24-7.44.84.6-8.28.96-8.16ZM645.72,444.08l6.24.48,6.12.84,1.68,6.48,1.92,6.48,2.4,6.36,2.76,6.24-6.24-2.16-6.24-1.68-6.48-1.2-6.48-.6-6.6-.12-6.48.36s-.96-10.2-.96-10.2c0,0-.36-10.2-.36-10.2l6.24-.72,6.24-.36h6.24Z"/>
    <polygon class="cls-1" points="1046.16 529.4 1038.36 542 1030.08 554.48 1046.16 529.4"/>
    <polygon class="cls-1" points="1046.16 529.28 1046.16 529.4 1038.36 542 1030.08 554.48 1046.16 529.28"/>
    <polygon class="cls-1" points="946.56 462.92 946.32 465.56 946.56 468.08 947.4 470.48 948.84 472.64 950.52 474.56 952.56 475.88 954.72 476.84 957.12 477.32 959.64 477.2 961.92 476.6 964.2 475.88 966.36 474.68 968.28 473.12 969.84 471.32 971.16 469.28 973.32 465.92 975.12 462.2 976.32 458.36 977.04 454.4 977.28 452.48 977.16 450.44 976.56 448.64 975.6 446.96 974.28 445.52 972.24 443.84 970.08 442.52 967.56 441.56 965.04 441.08 962.76 441.2 960.6 441.68 958.56 442.76 956.88 444.2 955.44 446 952.32 450.44 949.92 454.4 948 458.6 946.56 462.92"/>
    <polyline class="cls-1" points="748.68 485.28 750.84 484.88 753.12 484.76 755.4 485.12 757.56 485.96 759.48 487.16 761.16 488.84 762.36 490.76 763.32 492.8 763.68 495.08 763.56 494.6 764.4 501.32 768.24 499.88 772.08 498.32 775.8 496.4 779.52 494.36 783.12 492.08 786.48 489.56 789.72 487.04 792.72 484.28 795.36 481.52 797.76 478.76 799.8 476 801.36 473.24 802.68 470.48 803.52 467.84 803.88 465.44 804 463.16 803.52 461 802.68 459.2 801.48 457.52 799.8 456.2 797.76 455.12 795.48 454.28 792.84 453.8 789.84 453.56 786.6 453.8 783.24 454.16 779.64 455 775.92 455.96 772.2 457.28 768.36 458.96 764.64 460.76 760.92 462.8 757.32 465.08 753.84 467.48 750.6 470.12 747.6 472.76 744.96 475.52 742.56 478.4 740.52 481.16 738.84 483.92 737.52 486.68 743.88 485.72 748.68 485.28"/>
  </g>
</svg>